<?xml version="1.0" encoding="utf-8"?>
<!-- Generator: Adobe Illustrator 27.3.1, SVG Export Plug-In . SVG Version: 6.00 Build 0)  -->
<svg version="1.1" id="Layer_1" xmlns="http://www.w3.org/2000/svg" xmlns:xlink="http://www.w3.org/1999/xlink" x="0px" y="0px"
	 viewBox="0 0 800 800" style="enable-background:new 0 0 800 800;" xml:space="preserve">
<style type="text/css">
	.st0{fill:none;stroke:#000000;stroke-width:40;stroke-linecap:round;stroke-linejoin:round;stroke-miterlimit:133.3333;}
	.st1{display:none;}
	.st2{display:inline;}
</style>
<path class="st0" d="M233.3,316.7L400,400 M233.3,316.7v166.7L400,566.7 M233.3,316.7L400,233.3l166.7,83.3 M400,400l166.7-83.3
	 M400,400v166.7 M566.7,316.7v166.7L400,566.7 M266.7,133.3H200c-36.8,0-66.7,29.8-66.7,66.7v66.7 M266.7,666.7H200
	c-36.8,0-66.7-29.8-66.7-66.7v-66.7 M533.3,133.3H600c36.8,0,66.7,29.8,66.7,66.7v66.7 M533.3,666.7H600c36.8,0,66.7-29.8,66.7-66.7
	v-66.7"/>
<g class="st1">
	<path class="st2" d="M482.8,448.7l-5.4,2.2v32c0,4.2-0.7,7.6-2.1,10.3c-1.4,2.7-3.3,4.6-5.6,5.7c-2.5,1.2-4.5,1.1-5.9-0.4
		c-1.4-1.5-2.1-4.3-2.1-8.4v-78.4c0-4.5,0.8-7.9,2.3-10.4c1.5-2.5,4-4.3,7.4-5.4l24.6-7.9c3.3-1,6-1.7,8.3-2.1
		c2.3-0.4,4.3-0.3,6.1,0.3c2.1,0.5,4,1.7,5.7,3.5c1.6,1.8,2.8,4,3.7,6.7c0.8,2.7,1.2,5.8,1.2,9.2c0,6.9-1.4,13-4.2,18.3
		c-2.8,5.3-7.2,10-13.2,14.2c2.5,0.8,4.9,2.5,7.2,5.1c2.2,2.6,4.2,5.5,6,8.7c1.7,3.2,3.1,6.1,4,8.8c1,2.7,1.4,4.7,1.4,5.8
		c0,1.2-0.3,2.6-0.8,4c-0.6,1.5-1.3,2.8-2.3,3.9c-1,1.2-2.1,2-3.4,2.7c-1.5,0.7-2.8,0.8-3.9,0.3c-1.1-0.5-2-1.4-2.7-2.5
		c-0.8-1.2-1.8-3-3.1-5.4l-5.7-10.4c-2.1-3.9-3.9-6.7-5.6-8.5c-1.7-1.8-3.4-2.8-5.1-3.1C487.7,447.2,485.5,447.6,482.8,448.7z
		 M491.4,404.3l-13.9,4.8v27.4l13.5-5.2c3.5-1.4,6.5-2.9,8.8-4.6c2.3-1.7,4.1-3.8,5.4-6.2c1.2-2.4,1.8-5.3,1.8-8.6
		c0-2.6-0.5-4.8-1.5-6.5c-1-1.7-2.4-2.7-4.1-3.1C499.8,401.9,496.4,402.6,491.4,404.3z"/>
</g>
<g>
	<g>
		<path d="M299.4,479c-0.6,1.6-1.1,2.8-1.7,3.5c-0.5,0.7-1.2,1.1-1.9,1.3c-0.8,0.2-1.7,0-2.7-0.5c-1.8-0.9-3.3-2.5-4.6-4.9
			c-1.3-2.4-1.9-4.7-1.9-6.9c0-2.1,0.7-5.1,2-9.1l17.5-53.2c0.8-2.7,1.5-4.9,2.1-6.5c0.5-1.6,1.2-3.1,2-4.3c0.8-1.3,1.8-2.2,3.1-2.7
			c1.3-0.5,2.9-0.4,4.8,0.4c1.9,0.8,3.5,1.9,4.8,3.5c1.3,1.6,2.4,3.3,3.2,5.3c0.8,2,1.6,4.4,2.3,7.2c0.7,2.8,1.3,5.2,1.8,7.2
			l18.2,71.1c0.8,2.9,1.3,5.1,1.6,6.7c0.3,1.6,0.5,3,0.5,4.4c0,2.3-0.7,4.1-2.1,5.2c-1.4,1.2-3,1.3-4.8,0.4c-2.1-1-3.7-2.6-4.6-4.7
			c-0.9-2.1-2.1-5.9-3.4-11.4l-3.4-14l-28-12.8l-3.2,10.4C300.5,475.9,300,477.4,299.4,479z M318.2,416.6l-10.3,34.9l20.6,9.2
			L318.2,416.6z"/>
	</g>
</g>
<g id="Perspective_Text">
	<g>
		<path d="M467.6,457.4l-5.1,2.3v31.8c0,4.2-0.7,7.6-2,10.2c-1.4,2.6-3.1,4.5-5.3,5.5c-2.4,1.1-4.2,0.9-5.5-0.5
			c-1.3-1.5-2-4.2-2-8.3v-77.1c0-4.4,0.7-7.8,2.2-10.4c1.4-2.5,3.8-4.4,6.9-5.7l23.6-9.5c3.2-1.3,5.9-2.2,8.2-2.7
			c2.2-0.5,4.3-0.6,6-0.2c2.2,0.4,4.1,1.5,5.7,3.1c1.6,1.7,2.9,3.9,3.7,6.7c0.8,2.8,1.3,5.9,1.3,9.4c0,7.2-1.4,13.5-4.3,19
			c-2.9,5.6-7.3,10.5-13.2,15c2.5,0.8,4.9,2.4,7.1,5c2.3,2.6,4.3,5.5,6,8.8c1.8,3.2,3.1,6.3,4.1,9.1c1,2.8,1.5,4.8,1.5,6
			c0,1.3-0.3,2.7-0.9,4.2c-0.6,1.5-1.4,2.9-2.3,4.1c-1,1.2-2.1,2.1-3.4,2.7c-1.6,0.7-2.9,0.8-3.9,0.3c-1.1-0.5-2-1.4-2.8-2.6
			c-0.8-1.2-1.8-3.1-3.1-5.5l-5.7-10.5c-2-3.9-3.9-6.8-5.5-8.6c-1.6-1.8-3.3-2.8-5-3C472.3,455.8,470.2,456.2,467.6,457.4z
			 M475.9,412.5l-13.4,5.5v27.2l13-5.6c3.4-1.5,6.3-3.1,8.7-5c2.3-1.8,4.1-4,5.3-6.5c1.2-2.5,1.8-5.4,1.8-8.9c0-2.7-0.5-4.9-1.5-6.5
			c-1-1.6-2.3-2.6-4.1-2.9C484.1,409.6,480.8,410.4,475.9,412.5z"/>
	</g>
</g>
</svg>
