<?xml version="1.0" encoding="utf-8"?>
<!-- Generator: Adobe Illustrator 27.3.1, SVG Export Plug-In . SVG Version: 6.00 Build 0)  -->
<svg version="1.1" id="Layer_1" xmlns="http://www.w3.org/2000/svg" xmlns:xlink="http://www.w3.org/1999/xlink" x="0px" y="0px"
	 viewBox="0 0 800 800" style="enable-background:new 0 0 800 800;" xml:space="preserve">
<style type="text/css">
	.st0{fill:#FFFFFF;}
	.st1{display:none;}
	.st2{display:inline;}
</style>
<g>
	<path class="st0" d="M600,686.7h-66.7c-11,0-20-9-20-20s9-20,20-20H600c25.8,0,46.7-20.9,46.7-46.7v-66.7c0-11,9-20,20-20
		s20,9,20,20V600C686.7,647.8,647.8,686.7,600,686.7z M266.7,686.7H200c-47.8,0-86.7-38.9-86.7-86.7v-66.7c0-11,9-20,20-20
		c11,0,20,9,20,20V600c0,25.8,20.9,46.7,46.7,46.7h66.7c11,0,20,9,20,20S277.7,686.7,266.7,686.7z M666.7,286.7c-11,0-20-9-20-20
		V200c0-25.8-20.9-46.7-46.7-46.7h-66.7c-11,0-20-9-20-20c0-11,9-20,20-20H600c47.8,0,86.7,38.9,86.7,86.7v66.7
		C686.7,277.7,677.7,286.7,666.7,286.7z M133.3,286.7c-11,0-20-9-20-20V200c0-47.8,38.9-86.7,86.7-86.7h66.7c11,0,20,9,20,20
		c0,11-9,20-20,20H200c-25.8,0-46.7,20.9-46.7,46.7v66.7C153.3,277.7,144.3,286.7,133.3,286.7z"/>
</g>
<g class="st1">
	<path class="st2" d="M482.8,448.7l-5.4,2.2v32c0,4.2-0.7,7.6-2.1,10.3c-1.4,2.7-3.3,4.6-5.6,5.7c-2.5,1.2-4.5,1.1-5.9-0.4
		s-2.1-4.3-2.1-8.4v-78.4c0-4.5,0.8-7.9,2.3-10.4s4-4.3,7.4-5.4L496,388c3.3-1,6-1.7,8.3-2.1s4.3-0.3,6.1,0.3c2.1,0.5,4,1.7,5.7,3.5
		c1.6,1.8,2.8,4,3.7,6.7c0.8,2.7,1.2,5.8,1.2,9.2c0,6.9-1.4,13-4.2,18.3s-7.2,10-13.2,14.2c2.5,0.8,4.9,2.5,7.2,5.1
		c2.2,2.6,4.2,5.5,6,8.7c1.7,3.2,3.1,6.1,4,8.8c1,2.7,1.4,4.7,1.4,5.8c0,1.2-0.3,2.6-0.8,4c-0.6,1.5-1.3,2.8-2.3,3.9
		c-1,1.2-2.1,2-3.4,2.7c-1.5,0.7-2.8,0.8-3.9,0.3s-2-1.4-2.7-2.5c-0.8-1.2-1.8-3-3.1-5.4l-5.7-10.4c-2.1-3.9-3.9-6.7-5.6-8.5
		s-3.4-2.8-5.1-3.1C487.7,447.2,485.5,447.6,482.8,448.7z M491.4,404.3l-13.9,4.8v27.4l13.5-5.2c3.5-1.4,6.5-2.9,8.8-4.6
		s4.1-3.8,5.4-6.2c1.2-2.4,1.8-5.3,1.8-8.6c0-2.6-0.5-4.8-1.5-6.5s-2.4-2.7-4.1-3.1C499.8,401.9,496.4,402.6,491.4,404.3z"/>
</g>
<g>
	<path class="st0" d="M343.7,490l-11.1-29.2H238l-11.1,29.8c-4.3,11.6-8,19.5-11.1,23.6c-3.1,4.1-8.1,6.1-15.1,6.1
		c-5.9,0-11.2-2.2-15.7-6.5c-4.5-4.3-6.8-9.3-6.8-14.8c0-3.2,0.5-6.5,1.6-9.8c1.1-3.4,2.8-8.1,5.2-14.1L244.5,324
		c1.7-4.3,3.7-9.5,6.1-15.6c2.4-6.1,4.9-11.1,7.6-15.2c2.7-4,6.2-7.3,10.6-9.8c4.4-2.5,9.8-3.7,16.3-3.7c6.6,0,12,1.2,16.4,3.7
		c4.4,2.5,7.9,5.7,10.6,9.6c2.7,3.9,5,8.1,6.8,12.6c1.8,4.5,4.2,10.5,7.1,18l60.8,150.1c4.8,11.4,7.1,19.7,7.1,24.9
		c0,5.4-2.2,10.3-6.7,14.8c-4.5,4.5-9.9,6.7-16.3,6.7c-3.7,0-6.9-0.7-9.5-2c-2.6-1.3-4.9-3.1-6.7-5.4c-1.8-2.3-3.7-5.8-5.8-10.5
		C346.9,497.7,345.1,493.6,343.7,490z M250.4,425.4h69.5l-35.1-96L250.4,425.4z"/>
	<path class="st0" d="M491.9,416.8h-16.5v74.7c0,9.8-2.2,17.1-6.5,21.7c-4.3,4.7-10,7-17,7c-7.5,0-13.3-2.4-17.5-7.3
		c-4.1-4.9-6.2-12-6.2-21.4v-179c0-10.2,2.3-17.5,6.8-22.1c4.5-4.5,11.9-6.8,22.1-6.8h76.6c10.6,0,19.6,0.5,27.1,1.3
		c7.5,0.9,14.3,2.7,20.3,5.5c7.3,3.1,13.8,7.5,19.4,13.2c5.6,5.7,9.9,12.4,12.8,19.9c2.9,7.6,4.4,15.6,4.4,24
		c0,17.4-4.9,31.2-14.7,41.6c-9.8,10.4-24.6,17.7-44.5,22.1c8.4,4.4,16.3,11,24,19.7c7.6,8.7,14.4,17.9,20.4,27.7
		c6,9.8,10.6,18.6,14,26.5c3.3,7.9,5,13.3,5,16.3c0,3.1-1,6.1-2.9,9.1c-2,3-4.6,5.4-8,7.1c-3.4,1.7-7.3,2.6-11.7,2.6
		c-5.3,0-9.7-1.2-13.3-3.7c-3.6-2.5-6.7-5.6-9.3-9.4c-2.6-3.8-6.1-9.4-10.6-16.8l-18.9-31.4c-6.8-11.5-12.8-20.3-18.2-26.3
		c-5.3-6-10.8-10.2-16.3-12.4C507.2,417.9,500.2,416.8,491.9,416.8z M518.9,319.1h-43.5V383h42.2c11.3,0,20.8-1,28.6-2.9
		c7.7-2,13.6-5.3,17.7-10c4.1-4.7,6.1-11.2,6.1-19.4c0-6.5-1.6-12.1-4.9-17.1c-3.3-4.9-7.8-8.6-13.6-11
		C545.9,320.2,535,319.1,518.9,319.1z"/>
</g>
</svg>
