<?xml version="1.0" encoding="utf-8"?>
<!-- Generator: Adobe Illustrator 27.3.1, SVG Export Plug-In . SVG Version: 6.00 Build 0)  -->
<svg version="1.1" id="Layer_1" xmlns="http://www.w3.org/2000/svg" xmlns:xlink="http://www.w3.org/1999/xlink" x="0px" y="0px"
	 viewBox="0 0 800 800" style="enable-background:new 0 0 800 800;" xml:space="preserve">
<style type="text/css">
	.st0{fill:#FFFFFF;}
</style>
<g>
	<path class="st0" d="M322.8,82.7c0,45.6,37,82.7,82.7,82.7s82.7-37,82.7-82.7c0-21.9-8.8-43-24.2-58.4C448.3,8.8,427.3,0,405.5,0
		s-43,8.8-58.4,24.2S322.8,60.8,322.8,82.7L322.8,82.7z"/>
	<path class="st0" d="M448.3,182.5h-96.6c-27,0-48.9,21.9-48.9,48.9v216.7c0,27,21.7,48.9,48.9,48.9h96.6c27,0,48.9-21.9,48.9-48.9
		V231.4C497.2,204.4,475.3,182.5,448.3,182.5L448.3,182.5z"/>
	<g>
		<g>
			<path class="st0" d="M451.1,800c-24.8,0-44.8-20.2-44.8-44.8V454.1c0-24.8,20.2-44.8,44.8-44.8c24.7,0,44.8,20.2,44.8,44.8V755
				C495.9,779.8,475.9,800,451.1,800z M347,800c-24.8,0-44.8-20.2-44.8-44.8V454.1c0-24.8,20.2-44.8,44.8-44.8s44.8,20.2,44.8,44.8
				V755C392,779.8,371.9,800,347,800z"/>
		</g>
		<g>
			<path class="st0" d="M573,464.7c-13,0-25.3-7-31.7-19.2L431.7,238c-9.2-17.5-2.5-39.2,15-48.6c17.5-9.2,39.2-2.5,48.6,15
				L604.7,412c9.2,17.5,2.5,39.2-15,48.6C584.4,463.4,578.6,464.7,573,464.7z M227,464.7c-5.6,0-11.4-1.4-16.7-4.2
				c-17.5-9.2-24.2-30.9-15-48.6l109.4-207.3c9.2-17.5,30.9-24.2,48.6-15c17.5,9.2,24.2,30.9,15,48.6L258.8,445.6
				C252.3,457.8,239.8,464.7,227,464.7z"/>
		</g>
	</g>
</g>
</svg>
