<?xml version="1.0" encoding="utf-8"?>
<!-- Generator: Adobe Illustrator 27.3.1, SVG Export Plug-In . SVG Version: 6.00 Build 0)  -->
<svg version="1.1" id="Layer_1" xmlns="http://www.w3.org/2000/svg" xmlns:xlink="http://www.w3.org/1999/xlink" x="0px" y="0px"
	 viewBox="0 0 800 800" style="enable-background:new 0 0 800 800;" xml:space="preserve">
<style type="text/css">
	.st0{fill:none;stroke:#000000;stroke-width:40;stroke-linecap:round;stroke-linejoin:round;stroke-miterlimit:66.6667;}
</style>
<path class="st0" d="M400,733.3c184.1,0,333.3-149.2,333.3-333.3S584.1,66.7,400,66.7S66.7,215.9,66.7,400S215.9,733.3,400,733.3z"
	/>
<path class="st0" d="M66.7,400h666.7"/>
<path class="st0" d="M400,733.3c73.6,0,133.3-149.2,133.3-333.3S473.6,66.7,400,66.7S266.7,215.9,266.7,400S326.4,733.3,400,733.3z"
	/>
<path class="st0" d="M164.3,169c60.3,60.3,143.7,97.6,235.7,97.6l0,0c92,0,175.4-37.3,235.7-97.6"/>
<path class="st0" d="M635.7,631C575.4,570.6,492,533.3,400,533.3c-92,0-175.4,37.3-235.7,97.6"/>
</svg>
