<?xml version="1.0" encoding="utf-8"?>
<!-- Generator: Adobe Illustrator 27.3.1, SVG Export Plug-In . SVG Version: 6.00 Build 0)  -->
<svg version="1.1" id="Layer_1" xmlns="http://www.w3.org/2000/svg" xmlns:xlink="http://www.w3.org/1999/xlink" x="0px" y="0px"
	 viewBox="0 0 800 800" style="enable-background:new 0 0 800 800;" xml:space="preserve">
<style type="text/css">
	.st0{display:none;fill:#FF0000;}
	.st1{fill:#FFFFFF;}
</style>
<path class="st0" d="M614.9,243.7l-29.8,59.6c51.8,25.8,81.6,60.2,81.6,94.2c0,63.1-109.5,133.3-266.7,133.3
	s-266.7-70.3-266.7-133.3c0-27.9,20-56.1,55.9-79.5c14.1-9.3,19.1-27.6,11.6-42.8l0,0c-8.9-17.8-31.4-23.9-48.1-13
	c-55.2,36.3-86.1,84.3-86.1,135.3c0,112.1,146.4,200,333.3,200s333.3-87.9,333.3-200C733.3,337.3,690.2,281.3,614.9,243.7z"/>
<g>
	<g>
		<g>
			<path class="st1" d="M427.6,391.2v147.2c0,7.2,7.5,11.7,13.8,8.6l156.1-78c3.3-1.7,5.3-5,5.3-8.6V313.3c0-7.2-7.5-11.7-13.8-8.6
				l-155.9,78C429.7,384.2,427.6,387.5,427.6,391.2z"/>
		</g>
		<g>
			<path class="st1" d="M202.4,469.1l156.1,77.8c6.4,3.2,13.8-1.5,13.8-8.6V391.2c0-3.6-2.1-6.9-5.3-8.6l-155.9-78
				c-6.4-3.2-13.8,1.5-13.8,8.6v147.2C197.2,464.1,199.2,467.4,202.4,469.1z"/>
		</g>
		<g>
			<path class="st1" d="M248.4,261.6l147.2,73.5c2.8,1.4,5.9,1.4,8.6,0l147.2-73.5c7-3.6,7-13.7,0-17.1L404.2,171
				c-2.8-1.4-5.9-1.4-8.6,0l-147.2,73.7C241.4,247.9,241.4,258,248.4,261.6z"/>
		</g>
	</g>
	<g>
		<g>
			<path class="st1" d="M643.7,350.1c-9.6,0-18.1-6.9-19.7-16.7l-16.9-102.1v-1.6c0-17.6,12.5-33.2,29.7-36.9l1.1-0.2l96.8-10.2
				c11-1.2,20.8,6.8,22,17.8s-6.8,20.8-17.8,22l-91.2,9.6l15.7,95.2c1.8,10.9-5.6,21.2-16.5,23C645.9,350,644.8,350.1,643.7,350.1z"
				/>
		</g>
		<g>
			<path class="st1" d="M400.1,630.1c-93.9,0-182.4-24.6-249.3-69.3c-33.3-22.2-59.5-48.3-78-77.5c-19.6-31-29.6-64.1-29.6-98.3
				c0-40.1,14.2-79.8,41.1-114.8c25.2-32.9,61.7-61.8,105.6-83.6c9.9-4.9,21.9-0.9,26.8,9c4.9,9.9,0.9,21.9-9,26.8
				C129.7,261.2,83.2,322,83.2,385c0,53.2,31.9,103.8,89.8,142.5c60.4,40.3,141,62.6,227.1,62.6c86,0,166.7-22.2,227-62.6
				c57.9-38.7,89.8-89.3,89.8-142.5c0-48.1-26.8-95.1-75.3-132.2c-8.8-6.7-10.5-19.3-3.7-28c6.7-8.8,19.3-10.4,28-3.7
				c58.7,44.9,91.1,103.1,91.1,164c0,34.2-9.9,67.3-29.6,98.3c-18.5,29.2-44.7,55.2-78,77.5C582.5,605.5,494,630.1,400.1,630.1z"/>
		</g>
	</g>
</g>
</svg>
