<?xml version="1.0" encoding="utf-8"?>
<!-- Generator: Adobe Illustrator 27.3.1, SVG Export Plug-In . SVG Version: 6.00 Build 0)  -->
<svg version="1.1" id="Layer_1" xmlns="http://www.w3.org/2000/svg" xmlns:xlink="http://www.w3.org/1999/xlink" x="0px" y="0px"
	 viewBox="0 0 800 800" style="enable-background:new 0 0 800 800;" xml:space="preserve">
<style type="text/css">
	.st0{display:none;fill:#FF0000;}
	.st1{fill:none;stroke:#000000;stroke-width:40;stroke-linecap:round;stroke-miterlimit:10;}
</style>
<path class="st0" d="M614.9,243.7l-29.8,59.6c51.8,25.8,81.6,60.2,81.6,94.2c0,63.1-109.5,133.3-266.7,133.3
	s-266.7-70.3-266.7-133.3c0-27.9,20-56.1,55.9-79.5c14.1-9.3,19.1-27.6,11.6-42.8l0,0c-8.9-17.8-31.4-23.9-48.1-13
	c-55.2,36.3-86.1,84.3-86.1,135.3c0,112.1,146.4,200,333.3,200s333.3-87.9,333.3-200C733.3,337.3,690.2,281.3,614.9,243.7z"/>
<g>
	<g>
		<path d="M427.6,391.2v147.2c0,7.2,7.5,11.7,13.8,8.6l156.1-78c3.3-1.7,5.3-5,5.3-8.6V313.3c0-7.2-7.5-11.7-13.8-8.6l-155.9,78
			C429.7,384.2,427.6,387.5,427.6,391.2z"/>
		<path d="M202.4,469.1l156.1,77.8c6.4,3.2,13.8-1.5,13.8-8.6V391.2c0-3.6-2.1-6.9-5.3-8.6l-155.9-78c-6.4-3.2-13.8,1.5-13.8,8.6
			v147.2C197.2,464.1,199.2,467.4,202.4,469.1z"/>
		<path d="M248.4,261.6l147.2,73.5c2.8,1.4,5.9,1.4,8.6,0l147.2-73.5c7-3.6,7-13.7,0-17.1l-147.2-73.5c-2.8-1.4-5.9-1.4-8.6,0
			l-147.2,73.7C241.4,247.9,241.4,258,248.4,261.6z"/>
	</g>
	<g>
		<path class="st1" d="M736.8,202.1l-95.7,10.1c-8.2,1.8-14,9.1-14,17.4l16.6,100.5"/>
		<path class="st1" d="M653.7,236.9c51.8,39.6,83.2,91.4,83.2,148.1c0,124.3-150.8,225.1-336.8,225.1S63.2,509.3,63.2,385
			c0-73.9,53.3-139.5,135.6-180.5"/>
	</g>
</g>
</svg>
